<svg xmlns="http://www.w3.org/2000/svg" viewBox="0 0 1009 665" fill="#2563eb">
  <!-- North America -->
  <path d="M80,80 L95,70 L120,68 L145,72 L160,85 L170,100 L165,120 L150,135 L140,155 L130,170 L115,175 L100,165 L85,150 L75,130 L70,110 Z"/>
  <path d="M155,90 L175,80 L200,78 L220,85 L235,100 L240,120 L230,140 L215,155 L195,160 L175,155 L160,140 L150,120 L148,100 Z"/>
  <path d="M60,140 L75,135 L85,150 L80,170 L65,175 L55,165 L52,150 Z"/>
  <!-- Greenland -->
  <path d="M270,30 L295,25 L315,30 L325,45 L320,62 L305,70 L285,68 L270,55 L265,40 Z"/>
  <!-- Central America -->
  <path d="M148,175 L160,170 L168,180 L165,195 L155,200 L145,192 L142,180 Z"/>
  <!-- South America -->
  <path d="M175,200 L200,190 L225,195 L245,210 L255,235 L258,265 L250,295 L235,320 L215,340 L195,350 L175,345 L158,330 L148,305 L145,275 L150,245 L160,220 Z"/>
  <!-- Europe -->
  <path d="M440,55 L460,48 L480,50 L495,62 L498,78 L488,90 L470,95 L452,90 L440,78 L436,65 Z"/>
  <path d="M460,95 L478,90 L495,95 L505,108 L502,122 L488,128 L472,125 L460,112 L457,100 Z"/>
  <path d="M420,70 L438,65 L445,78 L440,92 L425,95 L415,85 L413,73 Z"/>
  <path d="M495,62 L515,55 L530,60 L538,73 L533,87 L518,92 L502,88 L493,75 Z"/>
  <path d="M472,125 L488,128 L495,140 L490,155 L475,158 L462,148 L460,135 Z"/>
  <!-- Scandinavia -->
  <path d="M460,30 L472,22 L485,25 L492,38 L488,52 L475,55 L462,50 L456,38 Z"/>
  <path d="M488,25 L500,18 L512,22 L516,35 L510,47 L498,48 L488,38 Z"/>
  <!-- UK -->
  <path d="M418,68 L428,62 L435,68 L432,80 L422,82 L415,75 Z"/>
  <!-- Africa -->
  <path d="M448,160 L475,152 L505,155 L528,168 L540,190 L545,220 L542,255 L530,285 L510,310 L488,325 L465,328 L443,318 L425,298 L415,270 L413,240 L418,210 L430,185 Z"/>
  <!-- Madagascar -->
  <path d="M548,268 L558,260 L565,268 L563,285 L553,290 L545,282 Z"/>
  <!-- Asia - Russia/Siberia -->
  <path d="M530,30 L580,20 L640,18 L700,22 L750,30 L780,42 L790,58 L775,70 L740,75 L700,72 L660,68 L620,65 L580,62 L548,58 L535,45 Z"/>
  <!-- Middle East -->
  <path d="M530,155 L555,148 L578,152 L592,165 L590,182 L575,192 L552,190 L535,178 L528,165 Z"/>
  <!-- South Asia -->
  <path d="M590,155 L620,148 L648,152 L665,168 L668,190 L658,210 L638,222 L615,220 L595,208 L582,188 L582,168 Z"/>
  <!-- Southeast Asia -->
  <path d="M660,168 L688,160 L710,165 L722,180 L718,198 L700,208 L678,205 L662,192 Z"/>
  <!-- China/East Asia -->
  <path d="M648,80 L695,72 L740,75 L768,90 L775,112 L765,135 L740,150 L708,158 L675,155 L648,140 L632,118 L632,98 Z"/>
  <!-- Japan -->
  <path d="M775,90 L785,85 L793,90 L792,102 L782,106 L774,100 Z"/>
  <path d="M782,108 L790,103 L797,108 L795,120 L785,123 L778,117 Z"/>
  <!-- Korea -->
  <path d="M758,105 L768,100 L775,107 L772,118 L762,120 L755,113 Z"/>
  <!-- Indonesia -->
  <path d="M680,225 L700,220 L715,225 L718,238 L705,243 L688,240 Z"/>
  <path d="M720,228 L738,223 L750,228 L752,240 L738,244 L722,240 Z"/>
  <path d="M755,222 L772,218 L782,224 L782,235 L768,238 L756,232 Z"/>
  <!-- Australia -->
  <path d="M700,310 L740,298 L778,300 L808,315 L822,338 L820,365 L805,388 L778,400 L748,402 L718,392 L698,372 L688,345 L690,320 Z"/>
  <!-- New Zealand -->
  <path d="M838,368 L848,360 L855,368 L852,382 L842,385 L835,377 Z"/>
  <path d="M842,388 L850,382 L856,390 L853,402 L843,404 L837,396 Z"/>
  <!-- Philippines -->
  <path d="M738,178 L748,172 L756,178 L754,190 L744,193 L736,186 Z"/>
  <path d="M748,195 L756,190 L762,196 L760,207 L751,209 L744,202 Z"/>
  <!-- Sri Lanka -->
  <path d="M628,228 L635,223 L640,228 L638,238 L630,240 L625,234 Z"/>
  <!-- Caribbean -->
  <path d="M195,158 L205,154 L212,158 L210,167 L202,169 L195,164 Z"/>
  <path d="M215,162 L223,158 L228,163 L226,171 L218,173 L213,168 Z"/>
  <!-- Iceland -->
  <path d="M368,38 L385,32 L398,36 L402,48 L393,56 L375,55 L365,47 Z"/>
</svg>
